<svg xmlns="http://www.w3.org/2000/svg" xmlns:xlink="http://www.w3.org/1999/xlink" width="300" zoomAndPan="magnify" viewBox="0 0 224.87999 52.499999" height="70" preserveAspectRatio="xMidYMid meet" version="1.0"><defs><g/><clipPath id="19f293e1e7"><rect x="0" width="104" y="0" height="30"/></clipPath></defs><g transform="matrix(1, 0, 0, 1, 3, 9)"><g clip-path="url(#19f293e1e7)"><g fill="#ffffff" fill-opacity="1"><g transform="translate(0.312032, 23.079013)"><g><path d="M 10.335938 1.445312 C 15.484375 1.445312 19.640625 -2.707031 19.640625 -7.855469 C 19.640625 -13.003906 15.484375 -17.160156 10.335938 -17.160156 C 5.1875 -17.160156 1.035156 -13.003906 1.035156 -7.855469 C 1.035156 -2.707031 5.1875 1.445312 10.335938 1.445312 Z M 10.335938 1.445312 "/></g></g></g><g fill="#ffffff" fill-opacity="1"><g transform="translate(20.985188, 23.079013)"><g><path d="M 0.828125 -4.78125 L 0.828125 -6.3125 L 19.84375 -6.3125 L 19.84375 -4.78125 Z M 0.828125 -4.78125 "/></g></g></g><g fill="#ffffff" fill-opacity="1"><g transform="translate(41.658348, 23.079013)"><g><path d="M 10.335938 1.445312 C 15.484375 1.445312 19.640625 -2.707031 19.640625 -7.855469 C 19.640625 -13.003906 15.484375 -17.160156 10.335938 -17.160156 C 5.1875 -17.160156 1.035156 -13.003906 1.035156 -7.855469 C 1.035156 -2.707031 5.1875 1.445312 10.335938 1.445312 Z M 1.796875 -7.855469 C 1.796875 -12.570312 5.625 -16.394531 10.335938 -16.394531 C 15.050781 -16.394531 18.875 -12.570312 18.875 -7.855469 C 18.875 -3.140625 15.050781 0.683594 10.335938 0.683594 C 5.625 0.683594 1.796875 -3.140625 1.796875 -7.855469 Z M 1.796875 -7.855469 "/></g></g></g><g fill="#ffffff" fill-opacity="1"><g transform="translate(62.331503, 23.079013)"><g><path d="M 0.828125 -4.78125 L 0.828125 -6.3125 L 19.84375 -6.3125 L 19.84375 -4.78125 Z M 0.828125 -4.78125 "/></g></g></g><g fill="#ffffff" fill-opacity="1"><g transform="translate(83.004664, 23.079013)"><g><path d="M 10.335938 1.445312 C 15.484375 1.445312 19.640625 -2.707031 19.640625 -7.855469 C 19.640625 -13.003906 15.484375 -17.160156 10.335938 -17.160156 C 5.1875 -17.160156 1.035156 -13.003906 1.035156 -7.855469 C 1.035156 -2.707031 5.1875 1.445312 10.335938 1.445312 Z M 10.335938 1.445312 "/></g></g></g></g></g><g fill="#ffffff" fill-opacity="1"><g transform="translate(108.496955, 35.665283)"><g><path d="M 7.28125 -9.578125 C 7.28125 -7.867188 7.703125 -6.609375 8.546875 -5.796875 C 9.390625 -4.992188 10.53125 -4.59375 11.96875 -4.59375 C 13.75 -4.59375 15.007812 -5.082031 15.75 -6.0625 C 16.5 -7.050781 16.875 -8.222656 16.875 -9.578125 C 16.875 -10.941406 16.5 -12.109375 15.75 -13.078125 C 15.007812 -14.046875 13.75 -14.53125 11.96875 -14.53125 C 10.53125 -14.53125 9.390625 -14.125 8.546875 -13.3125 C 7.703125 -12.507812 7.28125 -11.265625 7.28125 -9.578125 Z M 2.109375 -26.84375 L 7.28125 -26.84375 L 7.28125 -17.09375 C 7.894531 -17.8125 8.640625 -18.367188 9.515625 -18.765625 C 10.398438 -19.160156 11.429688 -19.359375 12.609375 -19.359375 C 14.429688 -19.359375 16.050781 -18.921875 17.46875 -18.046875 C 18.882812 -17.179688 20 -16 20.8125 -14.5 C 21.632812 -13.007812 22.046875 -11.347656 22.046875 -9.515625 C 22.046875 -7.828125 21.664062 -6.242188 20.90625 -4.765625 C 20.15625 -3.296875 19.039062 -2.101562 17.5625 -1.1875 C 16.082031 -0.269531 14.242188 0.1875 12.046875 0.1875 C 9.890625 0.1875 8.078125 -0.25 6.609375 -1.125 C 5.140625 -2.007812 4.019531 -3.191406 3.25 -4.671875 C 2.488281 -6.160156 2.109375 -7.796875 2.109375 -9.578125 Z M 2.109375 -26.84375 "/></g></g></g><g fill="#ffffff" fill-opacity="1"><g transform="translate(131.502029, 35.665283)"><g><path d="M 6.671875 -11.96875 C 7.304688 -11.738281 8.007812 -11.554688 8.78125 -11.421875 C 9.550781 -11.296875 10.28125 -11.234375 10.96875 -11.234375 C 11.9375 -11.234375 12.695312 -11.375 13.25 -11.65625 C 13.800781 -11.9375 14.078125 -12.320312 14.078125 -12.8125 C 14.078125 -13.320312 13.804688 -13.703125 13.265625 -13.953125 C 12.734375 -14.210938 12.019531 -14.34375 11.125 -14.34375 C 9.945312 -14.34375 8.992188 -14.128906 8.265625 -13.703125 C 7.535156 -13.285156 7.003906 -12.707031 6.671875 -11.96875 Z M 17.828125 -5.4375 L 17.828125 -0.609375 C 16.878906 -0.359375 15.804688 -0.15625 14.609375 0 C 13.410156 0.15625 12.347656 0.234375 11.421875 0.234375 C 9.097656 0.234375 7.160156 -0.207031 5.609375 -1.09375 C 4.066406 -1.976562 2.910156 -3.160156 2.140625 -4.640625 C 1.378906 -6.117188 1 -7.742188 1 -9.515625 C 1 -11.347656 1.382812 -13.003906 2.15625 -14.484375 C 2.9375 -15.972656 4.078125 -17.15625 5.578125 -18.03125 C 7.078125 -18.914062 8.875 -19.359375 10.96875 -19.359375 C 12.570312 -19.359375 14 -19.085938 15.25 -18.546875 C 16.507812 -18.015625 17.492188 -17.273438 18.203125 -16.328125 C 18.921875 -15.390625 19.28125 -14.28125 19.28125 -13 C 19.28125 -11.769531 18.921875 -10.6875 18.203125 -9.75 C 17.492188 -8.820312 16.507812 -8.09375 15.25 -7.5625 C 14 -7.039062 12.554688 -6.78125 10.921875 -6.78125 C 10.179688 -6.78125 9.410156 -6.875 8.609375 -7.0625 C 7.804688 -7.257812 7.054688 -7.523438 6.359375 -7.859375 C 6.585938 -6.910156 7.117188 -6.15625 7.953125 -5.59375 C 8.785156 -5.03125 10.070312 -4.75 11.8125 -4.75 C 12.34375 -4.75 12.984375 -4.773438 13.734375 -4.828125 C 14.492188 -4.878906 15.242188 -4.960938 15.984375 -5.078125 C 16.722656 -5.191406 17.335938 -5.3125 17.828125 -5.4375 Z M 17.828125 -5.4375 "/></g></g></g><g fill="#ffffff" fill-opacity="1"><g transform="translate(151.89986, 35.665283)"><g><path d="M 2 -26.84375 L 7.171875 -26.84375 L 7.171875 0 L 2 0 Z M 2 -26.84375 "/></g></g></g><g fill="#ffffff" fill-opacity="1"><g transform="translate(161.293599, 35.665283)"><g><path d="M 7.171875 -19.171875 L 7.171875 0 L 2 0 L 2 -19.171875 Z M 4.59375 -21.171875 C 3.625 -21.171875 2.859375 -21.472656 2.296875 -22.078125 C 1.734375 -22.691406 1.453125 -23.4375 1.453125 -24.3125 C 1.453125 -25.15625 1.734375 -25.882812 2.296875 -26.5 C 2.859375 -27.113281 3.625 -27.421875 4.59375 -27.421875 C 5.570312 -27.421875 6.332031 -27.101562 6.875 -26.46875 C 7.425781 -25.84375 7.703125 -25.125 7.703125 -24.3125 C 7.703125 -23.4375 7.425781 -22.691406 6.875 -22.078125 C 6.332031 -21.472656 5.570312 -21.171875 4.59375 -21.171875 Z M 4.59375 -21.171875 "/></g></g></g><g fill="#ffffff" fill-opacity="1"><g transform="translate(170.457283, 35.665283)"><g><path d="M 21.3125 -19.171875 L 13.34375 0 L 8.171875 0 L 0.234375 -19.171875 L 5.375 -19.171875 L 10.78125 -5.4375 L 16.140625 -19.171875 Z M 21.3125 -19.171875 "/></g></g></g><g fill="#ffffff" fill-opacity="1"><g transform="translate(191.775325, 35.665283)"><g><path d="M 7.171875 -19.171875 L 7.171875 0 L 2 0 L 2 -19.171875 Z M 4.59375 -21.171875 C 3.625 -21.171875 2.859375 -21.472656 2.296875 -22.078125 C 1.734375 -22.691406 1.453125 -23.4375 1.453125 -24.3125 C 1.453125 -25.15625 1.734375 -25.882812 2.296875 -26.5 C 2.859375 -27.113281 3.625 -27.421875 4.59375 -27.421875 C 5.570312 -27.421875 6.332031 -27.101562 6.875 -26.46875 C 7.425781 -25.84375 7.703125 -25.125 7.703125 -24.3125 C 7.703125 -23.4375 7.425781 -22.691406 6.875 -22.078125 C 6.332031 -21.472656 5.570312 -21.171875 4.59375 -21.171875 Z M 4.59375 -21.171875 "/></g></g></g><g fill="#ffffff" fill-opacity="1"><g transform="translate(201.169064, 35.665283)"><g><path d="M 10.96875 -4.59375 C 12.65625 -4.59375 13.875 -5.078125 14.625 -6.046875 C 15.382812 -7.023438 15.765625 -8.203125 15.765625 -9.578125 C 15.765625 -10.941406 15.382812 -12.109375 14.625 -13.078125 C 13.875 -14.046875 12.65625 -14.53125 10.96875 -14.53125 C 9.28125 -14.53125 8.054688 -14.046875 7.296875 -13.078125 C 6.546875 -12.109375 6.171875 -10.941406 6.171875 -9.578125 C 6.171875 -8.203125 6.546875 -7.023438 7.296875 -6.046875 C 8.054688 -5.078125 9.28125 -4.59375 10.96875 -4.59375 Z M 10.96875 0.1875 C 8.875 0.1875 7.082031 -0.25 5.59375 -1.125 C 4.113281 -2.007812 2.976562 -3.191406 2.1875 -4.671875 C 1.394531 -6.160156 1 -7.796875 1 -9.578125 C 1 -11.398438 1.394531 -13.046875 2.1875 -14.515625 C 2.976562 -15.984375 4.113281 -17.15625 5.59375 -18.03125 C 7.082031 -18.914062 8.875 -19.359375 10.96875 -19.359375 C 13.0625 -19.359375 14.847656 -18.914062 16.328125 -18.03125 C 17.816406 -17.15625 18.957031 -15.984375 19.75 -14.515625 C 20.539062 -13.046875 20.9375 -11.398438 20.9375 -9.578125 C 20.9375 -7.796875 20.539062 -6.160156 19.75 -4.671875 C 18.957031 -3.191406 17.816406 -2.007812 16.328125 -1.125 C 14.847656 -0.25 13.0625 0.1875 10.96875 0.1875 Z M 10.96875 0.1875 "/></g></g></g></svg>